<svg xmlns="http://www.w3.org/2000/svg" xmlns:xlink="http://www.w3.org/1999/xlink" width="500" zoomAndPan="magnify" viewBox="0 0 375 374.999991" height="500" preserveAspectRatio="xMidYMid meet" version="1.0"><defs><clipPath id="2e0e46b9a2"><path d="M 273 222 L 370.515625 222 L 370.515625 288 L 273 288 Z M 273 222 " clip-rule="nonzero"/></clipPath><clipPath id="25e7924488"><path d="M 4.515625 219 L 103 219 L 103 283 L 4.515625 283 Z M 4.515625 219 " clip-rule="nonzero"/></clipPath><clipPath id="4c927c9962"><path d="M 50.261719 62.523438 L 332 62.523438 L 332 312.457031 L 50.261719 312.457031 Z M 50.261719 62.523438 " clip-rule="nonzero"/></clipPath></defs><g clip-path="url(#2e0e46b9a2)"><path fill="#191919" d="M 289.074219 223.847656 C 289.726562 223.261719 290.371094 222.652344 291.019531 222.054688 C 339.003906 229.246094 370.480469 241.289062 370.480469 254.933594 C 370.480469 268.636719 338.796875 280.714844 290.535156 287.898438 C 289.933594 270.859375 283.722656 253.109375 273.835938 237.742188 C 280.640625 232.144531 286.703125 225.96875 289.074219 223.847656 " fill-opacity="1" fill-rule="nonzero"/></g><g clip-path="url(#25e7924488)"><path fill="#191919" d="M 4.515625 254.933594 C 4.515625 239.628906 44.109375 226.34375 102.160156 219.652344 C 95.5 228.601562 89.554688 239.101562 84.40625 246.554688 C 76.894531 257.441406 64.214844 263.519531 58.789062 276.003906 C 57.847656 278.191406 57.144531 280.472656 56.582031 282.789062 C 24.378906 275.597656 4.515625 265.777344 4.515625 254.933594 " fill-opacity="1" fill-rule="nonzero"/></g><g clip-path="url(#4c927c9962)"><path fill="#000000" d="M 325.144531 108.539062 C 320.988281 99.691406 312.011719 93.910156 302.113281 95.382812 C 290.035156 97.183594 283.113281 108.46875 277.425781 118.105469 C 261.648438 144.820312 246.402344 171.996094 230.265625 198.566406 C 229.105469 197.980469 227.976562 197.328125 226.796875 196.785156 C 210.472656 189.273438 192.375 185.941406 174.398438 186.664062 C 180.058594 158.617188 186.578125 130.648438 192.453125 102.691406 C 194.304688 93.902344 196.113281 84.574219 192.886719 76.152344 C 179.6875 41.722656 137.902344 81.480469 127.359375 97.253906 C 112.871094 118.933594 108.550781 149.976562 111.390625 175.40625 C 111.882812 179.789062 112.410156 194.972656 115.65625 205.699219 C 110.890625 208.9375 106.386719 213.984375 102.160156 219.652344 C 95.5 228.601562 89.554688 239.101562 84.40625 246.554688 C 83.15625 248.371094 81.726562 250.023438 80.238281 251.625 C 63.5 253.660156 50.769531 263.652344 50.769531 275.703125 C 50.769531 289.222656 66.78125 300.1875 86.53125 300.1875 C 97.523438 300.1875 107.351562 296.785156 113.914062 291.4375 C 136.433594 293.601562 161.296875 294.824219 187.5 294.824219 C 190.113281 294.824219 192.671875 294.769531 195.261719 294.738281 C 200.242188 304.96875 216.183594 312.457031 235.117188 312.457031 C 257.003906 312.457031 274.886719 302.453125 276.453125 289.777344 C 281.277344 289.191406 285.996094 288.570312 290.535156 287.898438 C 289.933594 270.859375 283.722656 253.109375 273.835938 237.742188 C 280.632812 232.144531 286.703125 225.96875 289.074219 223.847656 C 289.726562 223.261719 290.371094 222.652344 291.019531 222.054688 C 309.269531 205.09375 324.984375 181.519531 330.167969 156.574219 C 333.476562 140.65625 332.492188 124.1875 325.144531 108.539062 " fill-opacity="1" fill-rule="nonzero"/></g><path fill="#ffffff" d="M 143.933594 265.621094 L 139.195312 265.082031 C 135.691406 264.683594 133.132812 268.320312 134.699219 271.480469 L 136.378906 274.882812 C 137.058594 276.246094 138.308594 277.078125 139.660156 277.296875 C 140.960938 277.507812 142.347656 277.164062 143.417969 276.164062 L 146.472656 273.304688 C 149.25 270.707031 147.714844 266.054688 143.933594 265.621094 " fill-opacity="1" fill-rule="nonzero"/><path fill="#ffffff" d="M 255.214844 199.582031 C 257.796875 196.058594 260.421875 192.570312 262.949219 189.007812 C 267.933594 182.011719 272.363281 174.691406 276.175781 166.988281 C 279.210938 160.855469 281.507812 154.148438 285.667969 148.652344 C 288.660156 144.6875 295.445312 140.605469 299.488281 145.550781 C 300.871094 147.238281 301.449219 149.46875 301.511719 151.648438 C 301.8125 162.027344 294.785156 170.960938 289.070312 178.960938 C 282.40625 188.28125 275.445312 196.972656 267.339844 205.097656 C 267.089844 205.34375 266.847656 205.59375 266.601562 205.835938 C 265.84375 206.59375 258.796875 213.539062 256.390625 215.390625 C 255.980469 215.707031 255.445312 215.683594 255.050781 215.34375 C 253.351562 213.847656 248.289062 209.421875 248.289062 209.421875 C 248.160156 208.582031 250.914062 205.554688 251.484375 204.75 C 252.707031 203.011719 253.957031 201.289062 255.214844 199.582031 " fill-opacity="1" fill-rule="nonzero"/><path fill="#ffffff" d="M 154.113281 144.234375 C 151.210938 157.695312 150.246094 174.027344 149.488281 187.816406 C 149.472656 188.082031 149.335938 188.300781 149.085938 188.421875 C 147.722656 189.066406 142.988281 191.289062 141.011719 192.226562 C 140.566406 192.433594 140.050781 192.148438 139.972656 191.652344 C 136.390625 169.304688 136.121094 145.945312 141.976562 123.945312 C 143.597656 117.855469 145.5625 111.585938 148.488281 105.972656 C 152.375 98.527344 163.789062 98.148438 164.742188 107.796875 C 165.246094 112.941406 160.910156 120.890625 159.34375 125.789062 C 157.398438 131.886719 155.457031 137.976562 154.113281 144.234375 " fill-opacity="1" fill-rule="nonzero"/><path fill="#ffffff" d="M 118.085938 263.265625 C 118.746094 262.445312 119.378906 261.574219 119.9375 260.601562 C 123.605469 254.253906 123.433594 247.292969 119.558594 245.0625 C 115.683594 242.824219 109.574219 246.15625 105.914062 252.503906 C 105.699219 252.875 105.542969 253.253906 105.351562 253.625 C 110.574219 255.8125 115.050781 259.015625 118.085938 263.265625 " fill-opacity="1" fill-rule="nonzero"/><path fill="#ffffff" d="M 118.085938 263.265625 C 115.050781 259.015625 110.574219 255.8125 105.351562 253.625 C 88.386719 246.535156 63.515625 250.265625 54.171875 264.28125 C 51.90625 267.65625 50.511719 271.703125 50.769531 275.703125 C 51.085938 271.714844 52.683594 267.992188 55.152344 265.003906 C 64.9375 252.738281 88.058594 249.199219 104.492188 255.546875 C 109.566406 257.507812 114.003906 260.402344 117.214844 264.28125 C 119.816406 267.441406 121.625 271.238281 122.289062 275.703125 C 122.082031 270.859375 120.554688 266.726562 118.085938 263.265625 " fill-opacity="1" fill-rule="nonzero"/><path fill="#ffffff" d="M 210.199219 267.464844 C 208.96875 261.644531 205.019531 257.355469 200.273438 257.355469 C 194.554688 257.355469 189.914062 263.554688 189.914062 271.207031 C 189.914062 275.933594 191.695312 280.101562 194.394531 282.59375 C 195.203125 280.101562 196.582031 277.757812 198.304688 275.769531 C 201.792969 272.289062 205.839844 269.566406 210.199219 267.464844 " fill-opacity="1" fill-rule="nonzero"/><path fill="#ffffff" d="M 261.121094 267.871094 C 245.667969 260.902344 225.78125 259.957031 210.199219 267.464844 C 205.839844 269.566406 201.792969 272.289062 198.304688 275.769531 C 196.582031 277.757812 195.203125 280.101562 194.394531 282.59375 C 193.832031 284.339844 193.53125 286.15625 193.625 287.976562 C 193.765625 286.234375 194.253906 284.574219 194.902344 282.996094 C 195.890625 280.59375 197.339844 278.398438 199.199219 276.605469 C 201.980469 273.652344 205.898438 271.230469 210.492188 269.351562 C 233.230469 260.042969 272.84375 264.417969 276.609375 287.976562 C 276.996094 278.648438 268.875 271.617188 261.121094 267.871094 " fill-opacity="1" fill-rule="nonzero"/><path stroke-linecap="round" transform="matrix(-0.419561, 0.621666, -0.621666, -0.419561, 107.011397, 212.205879)" fill="none" stroke-linejoin="miter" d="M 0.999144 1.002862 C 21.865734 1.001397 42.732324 0.999932 63.598914 0.998468 " stroke="#ffffff" stroke-width="2" stroke-opacity="1" stroke-miterlimit="4"/></svg>